<svg width="512" height="512" viewBox="0 0 512 512" xmlns="http://www.w3.org/2000/svg">
  <circle cx="256" cy="256" r="220" fill="#F37021"/>
  <path d="M256 140
           C210 140 180 165 180 205
           H220
           C220 185 235 175 255 175
           C275 175 292 187 292 205
           C292 225 280 235 265 245
           C245 258 230 270 230 300
           V315
           H270
           V305
           C270 285 280 275 300 260
           C320 245 332 230 332 205
           C332 165 300 140 256 140Z"
        fill="white"/>
  <circle cx="256" cy="360" r="22" fill="white"/>
</svg>